{"accessors":[{"bufferView":0,"componentType":5125,"count":177678,"type":"SCALAR"},{"bufferView":1,"componentType":5126,"count":177678,"max":[1.11131143569946,1.23632526397705,1.17549435082229e-38],"min":[-3.22227263450623,-1.84865629673004,-6.13941478729248],"type":"VEC3"},{"bufferView":2,"componentType":5126,"count":177678,"type":"VEC2"}],"asset":{"generator":"ply_to_gltf","version":"2.0"},"bufferViews":[{"buffer":0,"byteLength":710712,"target":34963},{"buffer":0,"byteLength":2132136,"byteOffset":710712,"target":34962},{"buffer":0,"byteLength":1421424,"byteOffset":2842848,"target":34962}],"buffers":[{"byteLength":4264272,"uri":"ryans-home-office.bin"}],"images":[{"uri":"ryans-home-office.jpg"}],"materials":[{"pbrMetallicRoughness":{"baseColorTexture":{"index":0}}}],"meshes":[{"primitives":[{"attributes":{"POSITION":1,"TEXCOORD_0":2},"indices":0,"material":0,"mode":4}]}],"nodes":[{"mesh":0}],"samplers":[{"magFilter":9728,"minFilter":9728,"wrapR":10497,"wrapS":33071,"wrapT":33071}],"scene":0,"scenes":[{"nodes":[0]}],"textures":[{"sampler":0,"source":0}]}
